<svg xmlns="http://www.w3.org/2000/svg"><defs><symbol id="arrow-down"><path
    fill-rule="evenodd"
    clip-rule="evenodd"
    d="M7.5 2C7.77614 2 8 2.22386 8 2.5L8 11.2929L11.1464 8.14645C11.3417 7.95118 11.6583 7.95118 11.8536 8.14645C12.0488 8.34171 12.0488 8.65829 11.8536 8.85355L7.85355 12.8536C7.75979 12.9473 7.63261 13 7.5 13C7.36739 13 7.24021 12.9473 7.14645 12.8536L3.14645 8.85355C2.95118 8.65829 2.95118 8.34171 3.14645 8.14645C3.34171 7.95118 3.65829 7.95118 3.85355 8.14645L7 11.2929L7 2.5C7 2.22386 7.22386 2 7.5 2Z"
    fill="currentColor"
  /></symbol><symbol id="github"><path
    fill-rule="evenodd"
    clip-rule="evenodd"
    d="M7.49933 0.25C3.49635 0.25 0.25 3.49593 0.25 7.50024C0.25 10.703 2.32715 13.4206 5.2081 14.3797C5.57084 14.446 5.70302 14.2222 5.70302 14.0299C5.70302 13.8576 5.69679 13.4019 5.69323 12.797C3.67661 13.235 3.25112 11.825 3.25112 11.825C2.92132 10.9874 2.44599 10.7644 2.44599 10.7644C1.78773 10.3149 2.49584 10.3238 2.49584 10.3238C3.22353 10.375 3.60629 11.0711 3.60629 11.0711C4.25298 12.1788 5.30335 11.8588 5.71638 11.6732C5.78225 11.205 5.96962 10.8854 6.17658 10.7043C4.56675 10.5209 2.87415 9.89918 2.87415 7.12104C2.87415 6.32925 3.15677 5.68257 3.62053 5.17563C3.54576 4.99226 3.29697 4.25521 3.69174 3.25691C3.69174 3.25691 4.30015 3.06196 5.68522 3.99973C6.26337 3.83906 6.8838 3.75895 7.50022 3.75583C8.1162 3.75895 8.73619 3.83906 9.31523 3.99973C10.6994 3.06196 11.3069 3.25691 11.3069 3.25691C11.7026 4.25521 11.4538 4.99226 11.3795 5.17563C11.8441 5.68257 12.1245 6.32925 12.1245 7.12104C12.1245 9.9063 10.4292 10.5192 8.81452 10.6985C9.07444 10.9224 9.30633 11.3648 9.30633 12.0413C9.30633 13.0102 9.29742 13.7922 9.29742 14.0299C9.29742 14.2239 9.42828 14.4496 9.79591 14.3788C12.6746 13.4179 14.75 10.7025 14.75 7.50024C14.75 3.49593 11.5036 0.25 7.49933 0.25Z"
    fill="currentColor"
  /></symbol><symbol id="paper-plane"><path
    fill-rule="evenodd"
    clip-rule="evenodd"
    d="M1.20308 1.04312C1.00481 0.954998 0.772341 1.0048 0.627577 1.16641C0.482813 1.32802 0.458794 1.56455 0.568117 1.75196L3.92115 7.50002L0.568117 13.2481C0.458794 13.4355 0.482813 13.672 0.627577 13.8336C0.772341 13.9952 1.00481 14.045 1.20308 13.9569L14.7031 7.95693C14.8836 7.87668 15 7.69762 15 7.50002C15 7.30243 14.8836 7.12337 14.7031 7.04312L1.20308 1.04312ZM4.84553 7.10002L2.21234 2.586L13.2689 7.50002L2.21234 12.414L4.84552 7.90002H9C9.22092 7.90002 9.4 7.72094 9.4 7.50002C9.4 7.27911 9.22092 7.10002 9 7.10002H4.84553Z"
    fill="currentColor"
  /></symbol><symbol id="play"><path
    fill-rule="evenodd"
    clip-rule="evenodd"
    d="M3.24182 2.32181C3.3919 2.23132 3.5784 2.22601 3.73338 2.30781L12.7334 7.05781C12.8974 7.14436 13 7.31457 13 7.5C13 7.68543 12.8974 7.85564 12.7334 7.94219L3.73338 12.6922C3.5784 12.774 3.3919 12.7687 3.24182 12.6782C3.09175 12.5877 3 12.4252 3 12.25V2.75C3 2.57476 3.09175 2.4123 3.24182 2.32181ZM4 3.57925V11.4207L11.4288 7.5L4 3.57925Z"
    fill="currentColor"
  /></symbol><symbol viewBox="0 0 15 15" fill="none" id="sun"><path
    fill-rule="evenodd"
    clip-rule="evenodd"
    d="M7.5 0C7.77614 0 8 0.223858 8 0.5V2.5C8 2.77614 7.77614 3 7.5 3C7.22386 3 7 2.77614 7 2.5V0.5C7 0.223858 7.22386 0 7.5 0ZM2.1967 2.1967C2.39196 2.00144 2.70854 2.00144 2.90381 2.1967L4.31802 3.61091C4.51328 3.80617 4.51328 4.12276 4.31802 4.31802C4.12276 4.51328 3.80617 4.51328 3.61091 4.31802L2.1967 2.90381C2.00144 2.70854 2.00144 2.39196 2.1967 2.1967ZM0.5 7C0.223858 7 0 7.22386 0 7.5C0 7.77614 0.223858 8 0.5 8H2.5C2.77614 8 3 7.77614 3 7.5C3 7.22386 2.77614 7 2.5 7H0.5ZM2.1967 12.8033C2.00144 12.608 2.00144 12.2915 2.1967 12.0962L3.61091 10.682C3.80617 10.4867 4.12276 10.4867 4.31802 10.682C4.51328 10.8772 4.51328 11.1938 4.31802 11.3891L2.90381 12.8033C2.70854 12.9986 2.39196 12.9986 2.1967 12.8033ZM12.5 7C12.2239 7 12 7.22386 12 7.5C12 7.77614 12.2239 8 12.5 8H14.5C14.7761 8 15 7.77614 15 7.5C15 7.22386 14.7761 7 14.5 7H12.5ZM10.682 4.31802C10.4867 4.12276 10.4867 3.80617 10.682 3.61091L12.0962 2.1967C12.2915 2.00144 12.608 2.00144 12.8033 2.1967C12.9986 2.39196 12.9986 2.70854 12.8033 2.90381L11.3891 4.31802C11.1938 4.51328 10.8772 4.51328 10.682 4.31802ZM8 12.5C8 12.2239 7.77614 12 7.5 12C7.22386 12 7 12.2239 7 12.5V14.5C7 14.7761 7.22386 15 7.5 15C7.77614 15 8 14.7761 8 14.5V12.5ZM10.682 10.682C10.8772 10.4867 11.1938 10.4867 11.3891 10.682L12.8033 12.0962C12.9986 12.2915 12.9986 12.608 12.8033 12.8033C12.608 12.9986 12.2915 12.9986 12.0962 12.8033L10.682 11.3891C10.4867 11.1938 10.4867 10.8772 10.682 10.682ZM5.5 7.5C5.5 6.39543 6.39543 5.5 7.5 5.5C8.60457 5.5 9.5 6.39543 9.5 7.5C9.5 8.60457 8.60457 9.5 7.5 9.5C6.39543 9.5 5.5 8.60457 5.5 7.5ZM7.5 4.5C5.84315 4.5 4.5 5.84315 4.5 7.5C4.5 9.15685 5.84315 10.5 7.5 10.5C9.15685 10.5 10.5 9.15685 10.5 7.5C10.5 5.84315 9.15685 4.5 7.5 4.5Z"
    fill="currentColor"
  /></symbol><symbol id="moon"><path
    fill-rule="evenodd"
    clip-rule="evenodd"
    d="M2.89998 0.499976C2.89998 0.279062 2.72089 0.0999756 2.49998 0.0999756C2.27906 0.0999756 2.09998 0.279062 2.09998 0.499976V1.09998H1.49998C1.27906 1.09998 1.09998 1.27906 1.09998 1.49998C1.09998 1.72089 1.27906 1.89998 1.49998 1.89998H2.09998V2.49998C2.09998 2.72089 2.27906 2.89998 2.49998 2.89998C2.72089 2.89998 2.89998 2.72089 2.89998 2.49998V1.89998H3.49998C3.72089 1.89998 3.89998 1.72089 3.89998 1.49998C3.89998 1.27906 3.72089 1.09998 3.49998 1.09998H2.89998V0.499976ZM5.89998 3.49998C5.89998 3.27906 5.72089 3.09998 5.49998 3.09998C5.27906 3.09998 5.09998 3.27906 5.09998 3.49998V4.09998H4.49998C4.27906 4.09998 4.09998 4.27906 4.09998 4.49998C4.09998 4.72089 4.27906 4.89998 4.49998 4.89998H5.09998V5.49998C5.09998 5.72089 5.27906 5.89998 5.49998 5.89998C5.72089 5.89998 5.89998 5.72089 5.89998 5.49998V4.89998H6.49998C6.72089 4.89998 6.89998 4.72089 6.89998 4.49998C6.89998 4.27906 6.72089 4.09998 6.49998 4.09998H5.89998V3.49998ZM1.89998 6.49998C1.89998 6.27906 1.72089 6.09998 1.49998 6.09998C1.27906 6.09998 1.09998 6.27906 1.09998 6.49998V7.09998H0.499976C0.279062 7.09998 0.0999756 7.27906 0.0999756 7.49998C0.0999756 7.72089 0.279062 7.89998 0.499976 7.89998H1.09998V8.49998C1.09998 8.72089 1.27906 8.89997 1.49998 8.89997C1.72089 8.89997 1.89998 8.72089 1.89998 8.49998V7.89998H2.49998C2.72089 7.89998 2.89998 7.72089 2.89998 7.49998C2.89998 7.27906 2.72089 7.09998 2.49998 7.09998H1.89998V6.49998ZM8.54406 0.98184L8.24618 0.941586C8.03275 0.917676 7.90692 1.1655 8.02936 1.34194C8.17013 1.54479 8.29981 1.75592 8.41754 1.97445C8.91878 2.90485 9.20322 3.96932 9.20322 5.10022C9.20322 8.37201 6.82247 11.0878 3.69887 11.6097C3.45736 11.65 3.20988 11.6772 2.96008 11.6906C2.74563 11.702 2.62729 11.9535 2.77721 12.1072C2.84551 12.1773 2.91535 12.2458 2.98667 12.3128L3.05883 12.3795L3.31883 12.6045L3.50684 12.7532L3.62796 12.8433L3.81491 12.9742L3.99079 13.089C4.11175 13.1651 4.23536 13.2375 4.36157 13.3059L4.62496 13.4412L4.88553 13.5607L5.18837 13.6828L5.43169 13.7686C5.56564 13.8128 5.70149 13.8529 5.83857 13.8885C5.94262 13.9155 6.04767 13.9401 6.15405 13.9622C6.27993 13.9883 6.40713 14.0109 6.53544 14.0298L6.85241 14.0685L7.11934 14.0892C7.24637 14.0965 7.37436 14.1002 7.50322 14.1002C11.1483 14.1002 14.1032 11.1453 14.1032 7.50023C14.1032 7.25044 14.0893 7.00389 14.0623 6.76131L14.0255 6.48407C13.991 6.26083 13.9453 6.04129 13.8891 5.82642C13.8213 5.56709 13.7382 5.31398 13.6409 5.06881L13.5279 4.80132L13.4507 4.63542L13.3766 4.48666C13.2178 4.17773 13.0353 3.88295 12.8312 3.60423L12.6782 3.40352L12.4793 3.16432L12.3157 2.98361L12.1961 2.85951L12.0355 2.70246L11.8134 2.50184L11.4925 2.24191L11.2483 2.06498L10.9562 1.87446L10.6346 1.68894L10.3073 1.52378L10.1938 1.47176L9.95488 1.3706L9.67791 1.2669L9.42566 1.1846L9.10075 1.09489L8.83599 1.03486L8.54406 0.98184ZM10.4032 5.30023C10.4032 4.27588 10.2002 3.29829 9.83244 2.40604C11.7623 3.28995 13.1032 5.23862 13.1032 7.50023C13.1032 10.593 10.596 13.1002 7.50322 13.1002C6.63646 13.1002 5.81597 12.9036 5.08355 12.5522C6.5419 12.0941 7.81081 11.2082 8.74322 10.0416C8.87963 10.2284 9.10028 10.3497 9.34928 10.3497C9.76349 10.3497 10.0993 10.0139 10.0993 9.59971C10.0993 9.24256 9.84965 8.94373 9.51535 8.86816C9.57741 8.75165 9.63653 8.63334 9.6926 8.51332C9.88358 8.63163 10.1088 8.69993 10.35 8.69993C11.0403 8.69993 11.6 8.14028 11.6 7.44993C11.6 6.75976 11.0406 6.20024 10.3505 6.19993C10.3853 5.90487 10.4032 5.60464 10.4032 5.30023Z"
    fill="currentColor"
  /></symbol><symbol id="hamburger-menu"><path
    fill-rule="evenodd"
    clip-rule="evenodd"
    d="M1.5 3C1.22386 3 1 3.22386 1 3.5C1 3.77614 1.22386 4 1.5 4H13.5C13.7761 4 14 3.77614 14 3.5C14 3.22386 13.7761 3 13.5 3H1.5ZM1 7.5C1 7.22386 1.22386 7 1.5 7H13.5C13.7761 7 14 7.22386 14 7.5C14 7.77614 13.7761 8 13.5 8H1.5C1.22386 8 1 7.77614 1 7.5ZM1 11.5C1 11.2239 1.22386 11 1.5 11H13.5C13.7761 11 14 11.2239 14 11.5C14 11.7761 13.7761 12 13.5 12H1.5C1.22386 12 1 11.7761 1 11.5Z"
    fill="currentColor"
  /></symbol><symbol id="cross"><path
    fill-rule="evenodd"
    clip-rule="evenodd"
    d="M12.8536 2.85355C13.0488 2.65829 13.0488 2.34171 12.8536 2.14645C12.6583 1.95118 12.3417 1.95118 12.1464 2.14645L7.5 6.79289L2.85355 2.14645C2.65829 1.95118 2.34171 1.95118 2.14645 2.14645C1.95118 2.34171 1.95118 2.65829 2.14645 2.85355L6.79289 7.5L2.14645 12.1464C1.95118 12.3417 1.95118 12.6583 2.14645 12.8536C2.34171 13.0488 2.65829 13.0488 2.85355 12.8536L7.5 8.20711L12.1464 12.8536C12.3417 13.0488 12.6583 13.0488 12.8536 12.8536C13.0488 12.6583 13.0488 12.3417 12.8536 12.1464L8.20711 7.5L12.8536 2.85355Z"
    fill="currentColor"
  /></symbol><symbol id="envelope-closed"><path
    fill-rule="evenodd"
    clip-rule="evenodd"
    d="M1 2C0.447715 2 0 2.44772 0 3V12C0 12.5523 0.447715 13 1 13H14C14.5523 13 15 12.5523 15 12V3C15 2.44772 14.5523 2 14 2H1ZM1 3L14 3V3.92494C13.9174 3.92486 13.8338 3.94751 13.7589 3.99505L7.5 7.96703L1.24112 3.99505C1.16621 3.94751 1.0826 3.92486 1 3.92494V3ZM1 4.90797V12H14V4.90797L7.74112 8.87995C7.59394 8.97335 7.40606 8.97335 7.25888 8.87995L1 4.90797Z"
    fill="currentColor"
  /></symbol><symbol id="discord"><path fill-rule="evenodd" clip-rule="evenodd" d="M5.07451 1.82584C5.03267 1.81926 4.99014 1.81825 4.94803 1.82284C4.10683 1.91446 2.82673 2.36828 2.07115 2.77808C2.02106 2.80525 1.97621 2.84112 1.93869 2.88402C1.62502 3.24266 1.34046 3.82836 1.11706 4.38186C0.887447 4.95076 0.697293 5.55032 0.588937 5.98354C0.236232 7.39369 0.042502 9.08728 0.0174948 10.6925C0.0162429 10.7729 0.0351883 10.8523 0.0725931 10.9234C0.373679 11.496 1.02015 12.027 1.66809 12.4152C2.32332 12.8078 3.08732 13.1182 3.70385 13.1778C3.85335 13.1922 4.00098 13.1358 4.10282 13.0255C4.2572 12.8581 4.5193 12.4676 4.71745 12.1643C4.80739 12.0267 4.89157 11.8953 4.95845 11.7901C5.62023 11.9106 6.45043 11.9801 7.50002 11.9801C8.54844 11.9801 9.37796 11.9107 10.0394 11.7905C10.1062 11.8957 10.1903 12.0269 10.2801 12.1643C10.4783 12.4676 10.7404 12.8581 10.8947 13.0255C10.9966 13.1358 11.1442 13.1922 11.2937 13.1778C11.9102 13.1182 12.6742 12.8078 13.3295 12.4152C13.9774 12.027 14.6239 11.496 14.925 10.9234C14.9624 10.8523 14.9813 10.7729 14.9801 10.6925C14.9551 9.08728 14.7613 7.39369 14.4086 5.98354C14.3003 5.55032 14.1101 4.95076 13.8805 4.38186C13.6571 3.82836 13.3725 3.24266 13.0589 2.88402C13.0214 2.84112 12.9765 2.80525 12.9264 2.77808C12.1708 2.36828 10.8907 1.91446 10.0495 1.82284C10.0074 1.81825 9.96489 1.81926 9.92305 1.82584C9.71676 1.85825 9.5391 1.96458 9.40809 2.06355C9.26977 2.16804 9.1413 2.29668 9.0304 2.42682C8.86968 2.61544 8.71437 2.84488 8.61428 3.06225C8.27237 3.03501 7.90138 3.02 7.5 3.02C7.0977 3.02 6.72593 3.03508 6.38337 3.06244C6.28328 2.84501 6.12792 2.61549 5.96716 2.42682C5.85626 2.29668 5.72778 2.16804 5.58947 2.06355C5.45846 1.96458 5.2808 1.85825 5.07451 1.82584ZM11.0181 11.5382C11.0395 11.5713 11.0615 11.6051 11.0838 11.6392C11.2169 11.843 11.3487 12.0385 11.4508 12.1809C11.8475 12.0916 12.352 11.8818 12.8361 11.5917C13.3795 11.2661 13.8098 10.8918 14.0177 10.5739C13.9852 9.06758 13.7993 7.50369 13.4773 6.21648C13.38 5.82759 13.2038 5.27021 12.9903 4.74117C12.7893 4.24326 12.5753 3.82162 12.388 3.5792C11.7376 3.24219 10.7129 2.88582 10.0454 2.78987C10.0308 2.79839 10.0113 2.81102 9.98675 2.82955C9.91863 2.881 9.84018 2.95666 9.76111 3.04945C9.71959 3.09817 9.68166 3.1471 9.64768 3.19449C9.953 3.25031 10.2253 3.3171 10.4662 3.39123C11.1499 3.6016 11.6428 3.89039 11.884 4.212C12.0431 4.42408 12.0001 4.72494 11.788 4.884C11.5759 5.04306 11.2751 5.00008 11.116 4.788C11.0572 4.70961 10.8001 4.4984 10.1838 4.30877C9.58933 4.12585 8.71356 3.98 7.5 3.98C6.28644 3.98 5.41067 4.12585 4.81616 4.30877C4.19988 4.4984 3.94279 4.70961 3.884 4.788C3.72494 5.00008 3.42408 5.04306 3.212 4.884C2.99992 4.72494 2.95694 4.42408 3.116 4.212C3.35721 3.89039 3.85011 3.6016 4.53383 3.39123C4.77418 3.31727 5.04571 3.25062 5.35016 3.19488C5.31611 3.14738 5.27808 3.09831 5.23645 3.04945C5.15738 2.95666 5.07893 2.881 5.01081 2.82955C4.98628 2.81102 4.96674 2.79839 4.95217 2.78987C4.28464 2.88582 3.25999 3.24219 2.60954 3.5792C2.42226 3.82162 2.20825 4.24326 2.00729 4.74117C1.79376 5.27021 1.61752 5.82759 1.52025 6.21648C1.19829 7.50369 1.01236 9.06758 0.97986 10.5739C1.18772 10.8918 1.61807 11.2661 2.16148 11.5917C2.64557 11.8818 3.15003 12.0916 3.5468 12.1809C3.64885 12.0385 3.78065 11.843 3.9138 11.6392C3.93626 11.6048 3.95838 11.5708 3.97996 11.5375C3.19521 11.2591 2.77361 10.8758 2.50064 10.4664C2.35359 10.2458 2.4132 9.94778 2.63377 9.80074C2.85435 9.65369 3.15236 9.71329 3.29941 9.93387C3.56077 10.3259 4.24355 11.0201 7.50002 11.0201C10.7565 11.0201 11.4392 10.326 11.7006 9.93386C11.8477 9.71329 12.1457 9.65369 12.3663 9.80074C12.5869 9.94779 12.6465 10.2458 12.4994 10.4664C12.2262 10.8762 11.8041 11.2598 11.0181 11.5382ZM4.08049 7.01221C4.32412 6.74984 4.65476 6.60162 5.00007 6.59998C5.34538 6.60162 5.67603 6.74984 5.91966 7.01221C6.16329 7.27459 6.30007 7.62974 6.30007 7.99998C6.30007 8.37021 6.16329 8.72536 5.91966 8.98774C5.67603 9.25011 5.34538 9.39833 5.00007 9.39998C4.65476 9.39833 4.32412 9.25011 4.08049 8.98774C3.83685 8.72536 3.70007 8.37021 3.70007 7.99998C3.70007 7.62974 3.83685 7.27459 4.08049 7.01221ZM9.99885 6.59998C9.65354 6.60162 9.3229 6.74984 9.07926 7.01221C8.83563 7.27459 8.69885 7.62974 8.69885 7.99998C8.69885 8.37021 8.83563 8.72536 9.07926 8.98774C9.3229 9.25011 9.65354 9.39833 9.99885 9.39998C10.3442 9.39833 10.6748 9.25011 10.9184 8.98774C11.1621 8.72536 11.2989 8.37021 11.2989 7.99998C11.2989 7.62974 11.1621 7.27459 10.9184 7.01221C10.6748 6.74984 10.3442 6.60162 9.99885 6.59998Z" fill="currentColor"/></symbol><symbol id="twitter"><path
    fill-rule="evenodd"
    clip-rule="evenodd"
    d="M7.23336 4.69629C7.23336 2.96884 8.63335 1.56857 10.36 1.56857C11.3736 1.56857 12.183 2.04804 12.7254 2.74385C13.3079 2.62467 13.8557 2.40913 14.3513 2.11508C14.1559 2.72598 13.7424 3.2396 13.2033 3.56463C13.2038 3.56568 13.2042 3.56674 13.2047 3.56779C13.7334 3.50361 14.2364 3.36302 14.7048 3.15546L14.7037 3.15715C14.3667 3.66183 13.9431 4.10736 13.4561 4.47034C13.4823 4.64672 13.4956 4.82427 13.4956 5.00079C13.4956 8.6871 10.6873 12.9746 5.52122 12.9746C3.93906 12.9746 2.46544 12.511 1.22505 11.7152C0.992632 11.5661 0.925108 11.2568 1.07423 11.0244C1.0874 11.0038 1.10183 10.9846 1.11734 10.9666C1.20582 10.8202 1.37438 10.7309 1.5554 10.7522C2.47066 10.8601 3.38568 10.7485 4.19219 10.3962C3.39226 10.0434 2.77129 9.35975 2.50204 8.51974C2.45359 8.3686 2.48835 8.20311 2.59351 8.08422C2.59716 8.0801 2.60087 8.07606 2.60464 8.0721C1.96391 7.50819 1.55973 6.68208 1.55973 5.76143V5.72759C1.55973 5.56814 1.64411 5.42059 1.78155 5.33974C1.82671 5.31317 1.87537 5.29511 1.92532 5.28558C1.70549 4.86154 1.58116 4.37984 1.58116 3.86958C1.58116 3.40165 1.58384 2.81192 1.91332 2.28081C1.98718 2.16175 2.10758 2.08915 2.2364 2.07195C2.42588 2.01237 2.64087 2.06969 2.77406 2.23302C3.86536 3.57126 5.44066 4.49583 7.23366 4.73961L7.23336 4.69629ZM5.52122 11.9746C4.73387 11.9746 3.97781 11.8435 3.27248 11.6023C4.13012 11.4538 4.95307 11.1159 5.66218 10.5602C5.81211 10.4427 5.87182 10.2435 5.81126 10.0629C5.7507 9.88234 5.583 9.75943 5.39255 9.75607C4.68968 9.74366 4.06712 9.39716 3.67793 8.86845C3.86828 8.85306 4.05428 8.82039 4.23445 8.77167C4.43603 8.71716 4.57363 8.53114 4.56674 8.32243C4.55985 8.11372 4.41029 7.93718 4.20555 7.89607C3.42694 7.73977 2.79883 7.16764 2.56169 6.42174C2.76255 6.47025 2.97102 6.4991 3.18482 6.5061C3.38563 6.51267 3.56646 6.38533 3.62795 6.19405C3.68943 6.00277 3.61666 5.79391 3.44963 5.68224C2.86523 5.29155 2.48116 4.62464 2.48116 3.86958C2.48116 3.70213 2.48352 3.55268 2.49355 3.41719C3.85115 4.79913 5.70873 5.68931 7.77588 5.79338C7.93225 5.80126 8.08328 5.73543 8.18395 5.61553C8.28463 5.49562 8.32332 5.33548 8.28851 5.18284C8.25255 5.02517 8.23336 4.86284 8.23336 4.69629C8.23336 3.52085 9.18591 2.56857 10.36 2.56857C11.5943 2.56857 12.4956 3.71208 12.4956 5.00079C12.4956 8.25709 10.0202 11.9746 5.52122 11.9746Z"
    fill="currentColor"
  /></symbol><symbol id="external-link"><path
    fill-rule="evenodd"
    clip-rule="evenodd"
    d="M3 2C2.44772 2 2 2.44772 2 3V12C2 12.5523 2.44772 13 3 13H12C12.5523 13 13 12.5523 13 12V8.5C13 8.22386 12.7761 8 12.5 8C12.2239 8 12 8.22386 12 8.5V12H3V3L6.5 3C6.77614 3 7 2.77614 7 2.5C7 2.22386 6.77614 2 6.5 2H3ZM12.8536 2.14645C12.9015 2.19439 12.9377 2.24964 12.9621 2.30861C12.9861 2.36669 12.9996 2.4303 13 2.497L13 2.5V2.50049V5.5C13 5.77614 12.7761 6 12.5 6C12.2239 6 12 5.77614 12 5.5V3.70711L6.85355 8.85355C6.65829 9.04882 6.34171 9.04882 6.14645 8.85355C5.95118 8.65829 5.95118 8.34171 6.14645 8.14645L11.2929 3H9.5C9.22386 3 9 2.77614 9 2.5C9 2.22386 9.22386 2 9.5 2H12.4999H12.5C12.5678 2 12.6324 2.01349 12.6914 2.03794C12.7504 2.06234 12.8056 2.09851 12.8536 2.14645Z"
    fill="currentColor"
  /></symbol><symbol id="rocket"><path d="M6.85357 3.85355L7.65355 3.05353C8.2981 2.40901 9.42858 1.96172 10.552 1.80125C11.1056 1.72217 11.6291 1.71725 12.0564 1.78124C12.4987 1.84748 12.7698 1.97696 12.8965 2.10357C13.0231 2.23018 13.1526 2.50125 13.2188 2.94357C13.2828 3.37086 13.2779 3.89439 13.1988 4.44801C13.0383 5.57139 12.591 6.70188 11.9464 7.34645L7.49999 11.7929L6.35354 10.6465C6.15827 10.4512 5.84169 10.4512 5.64643 10.6465C5.45117 10.8417 5.45117 11.1583 5.64643 11.3536L7.14644 12.8536C7.34171 13.0488 7.65829 13.0488 7.85355 12.8536L8.40073 12.3064L9.57124 14.2572C9.65046 14.3893 9.78608 14.4774 9.9389 14.4963C10.0917 14.5151 10.2447 14.4624 10.3535 14.3536L12.3535 12.3536C12.4648 12.2423 12.5172 12.0851 12.495 11.9293L12.0303 8.67679L12.6536 8.05355C13.509 7.19808 14.0117 5.82855 14.1887 4.58943C14.2784 3.9618 14.2891 3.33847 14.2078 2.79546C14.1287 2.26748 13.9519 1.74482 13.6035 1.39645C13.2552 1.04809 12.7325 0.871332 12.2045 0.792264C11.6615 0.710945 11.0382 0.721644 10.4105 0.8113C9.17143 0.988306 7.80189 1.491 6.94644 2.34642L6.32322 2.96968L3.07071 2.50504C2.91492 2.48278 2.75773 2.53517 2.64645 2.64646L0.646451 4.64645C0.537579 4.75533 0.484938 4.90829 0.50375 5.0611C0.522563 5.21391 0.61073 5.34954 0.742757 5.42876L2.69364 6.59928L2.14646 7.14645C2.0527 7.24022 2.00002 7.3674 2.00002 7.50001C2.00002 7.63261 2.0527 7.75979 2.14646 7.85356L3.64647 9.35356C3.84173 9.54883 4.15831 9.54883 4.35357 9.35356C4.54884 9.1583 4.54884 8.84172 4.35357 8.64646L3.20712 7.50001L3.85357 6.85356L6.85357 3.85355ZM10.0993 13.1936L9.12959 11.5775L11.1464 9.56067L11.4697 11.8232L10.0993 13.1936ZM3.42251 5.87041L5.43935 3.85356L3.17678 3.53034L1.80638 4.90074L3.42251 5.87041ZM2.35356 10.3535C2.54882 10.1583 2.54882 9.8417 2.35356 9.64644C2.1583 9.45118 1.84171 9.45118 1.64645 9.64644L0.646451 10.6464C0.451188 10.8417 0.451188 11.1583 0.646451 11.3535C0.841713 11.5488 1.1583 11.5488 1.35356 11.3535L2.35356 10.3535ZM3.85358 11.8536C4.04884 11.6583 4.04885 11.3417 3.85359 11.1465C3.65833 10.9512 3.34175 10.9512 3.14648 11.1465L1.14645 13.1464C0.95119 13.3417 0.951187 13.6583 1.14645 13.8535C1.34171 14.0488 1.65829 14.0488 1.85355 13.8536L3.85358 11.8536ZM5.35356 13.3535C5.54882 13.1583 5.54882 12.8417 5.35356 12.6464C5.1583 12.4512 4.84171 12.4512 4.64645 12.6464L3.64645 13.6464C3.45119 13.8417 3.45119 14.1583 3.64645 14.3535C3.84171 14.5488 4.1583 14.5488 4.35356 14.3535L5.35356 13.3535ZM9.49997 6.74881C10.1897 6.74881 10.7488 6.1897 10.7488 5.5C10.7488 4.8103 10.1897 4.25118 9.49997 4.25118C8.81026 4.25118 8.25115 4.8103 8.25115 5.5C8.25115 6.1897 8.81026 6.74881 9.49997 6.74881Z" fill="currentColor" fill-rule="evenodd" clip-rule="evenodd"/></symbol><symbol id="globe"><path d="M7.49996 1.80002C4.35194 1.80002 1.79996 4.352 1.79996 7.50002C1.79996 10.648 4.35194 13.2 7.49996 13.2C10.648 13.2 13.2 10.648 13.2 7.50002C13.2 4.352 10.648 1.80002 7.49996 1.80002ZM0.899963 7.50002C0.899963 3.85494 3.85488 0.900024 7.49996 0.900024C11.145 0.900024 14.1 3.85494 14.1 7.50002C14.1 11.1451 11.145 14.1 7.49996 14.1C3.85488 14.1 0.899963 11.1451 0.899963 7.50002Z" fill="currentColor" fill-rule="evenodd" clip-rule="evenodd"></path><path d="M13.4999 7.89998H1.49994V7.09998H13.4999V7.89998Z" fill="currentColor" fill-rule="evenodd" clip-rule="evenodd"></path><path d="M7.09991 13.5V1.5H7.89991V13.5H7.09991zM10.375 7.49998C10.375 5.32724 9.59364 3.17778 8.06183 1.75656L8.53793 1.24341C10.2396 2.82218 11.075 5.17273 11.075 7.49998 11.075 9.82724 10.2396 12.1778 8.53793 13.7566L8.06183 13.2434C9.59364 11.8222 10.375 9.67273 10.375 7.49998zM3.99969 7.5C3.99969 5.17611 4.80786 2.82678 6.45768 1.24719L6.94177 1.75281C5.4582 3.17323 4.69969 5.32389 4.69969 7.5 4.6997 9.67611 5.45822 11.8268 6.94179 13.2472L6.45769 13.7528C4.80788 12.1732 3.9997 9.8239 3.99969 7.5z" fill="currentColor" fill-rule="evenodd" clip-rule="evenodd"></path><path d="M7.49996 3.95801C9.66928 3.95801 11.8753 4.35915 13.3706 5.19448 13.5394 5.28875 13.5998 5.50197 13.5055 5.67073 13.4113 5.83948 13.198 5.89987 13.0293 5.8056 11.6794 5.05155 9.60799 4.65801 7.49996 4.65801 5.39192 4.65801 3.32052 5.05155 1.97064 5.8056 1.80188 5.89987 1.58866 5.83948 1.49439 5.67073 1.40013 5.50197 1.46051 5.28875 1.62927 5.19448 3.12466 4.35915 5.33063 3.95801 7.49996 3.95801zM7.49996 10.85C9.66928 10.85 11.8753 10.4488 13.3706 9.6135 13.5394 9.51924 13.5998 9.30601 13.5055 9.13726 13.4113 8.9685 13.198 8.90812 13.0293 9.00238 11.6794 9.75643 9.60799 10.15 7.49996 10.15 5.39192 10.15 3.32052 9.75643 1.97064 9.00239 1.80188 8.90812 1.58866 8.9685 1.49439 9.13726 1.40013 9.30601 1.46051 9.51924 1.62927 9.6135 3.12466 10.4488 5.33063 10.85 7.49996 10.85z" fill="currentColor" fill-rule="evenodd" clip-rule="evenodd"/></symbol></defs></svg>