<svg xmlns="http://www.w3.org/2000/svg"><defs><symbol id="arrow-down"><path d="M7.5 2a.5.5 0 0 1 .5.5v8.793l3.146-3.147a.5.5 0 0 1 .708.708l-4 4a.5.5 0 0 1-.708 0l-4-4a.5.5 0 1 1 .708-.708L7 11.293V2.5a.5.5 0 0 1 .5-.5Z" fill="currentColor" fill-rule="evenodd" clip-rule="evenodd"/></symbol><symbol id="github"><path d="M7.5.25a7.25 7.25 0 0 0-2.292 14.13c.363.066.495-.158.495-.35 0-.172-.006-.628-.01-1.233-2.016.438-2.442-.972-2.442-.972-.33-.838-.805-1.06-.805-1.06-.658-.45.05-.441.05-.441.728.051 1.11.747 1.11.747.647 1.108 1.697.788 2.11.602.066-.468.254-.788.46-.969-1.61-.183-3.302-.805-3.302-3.583a2.8 2.8 0 0 1 .747-1.945c-.075-.184-.324-.92.07-1.92 0 0 .61-.194 1.994.744A6.963 6.963 0 0 1 7.5 3.756 6.97 6.97 0 0 1 9.315 4c1.384-.938 1.992-.743 1.992-.743.396.998.147 1.735.072 1.919.465.507.745 1.153.745 1.945 0 2.785-1.695 3.398-3.31 3.577.26.224.492.667.492 1.343 0 .97-.009 1.751-.009 1.989 0 .194.131.42.499.349A7.25 7.25 0 0 0 7.499.25Z" fill="currentColor" fill-rule="evenodd" clip-rule="evenodd"/></symbol><symbol id="paper-plane"><path d="M1.203 1.043a.5.5 0 0 0-.635.709L3.921 7.5.568 13.248a.5.5 0 0 0 .635.709l13.5-6a.5.5 0 0 0 0-.914l-13.5-6ZM4.846 7.1 2.212 2.586 13.27 7.5 2.212 12.414 4.846 7.9H9a.4.4 0 1 0 0-.8H4.846Z" fill="currentColor" fill-rule="evenodd" clip-rule="evenodd"/></symbol><symbol id="play"><path d="M3.242 2.322a.5.5 0 0 1 .491-.014l9 4.75a.5.5 0 0 1 0 .884l-9 4.75A.5.5 0 0 1 3 12.25v-9.5a.5.5 0 0 1 .242-.428ZM4 3.579v7.842L11.429 7.5 4 3.58Z" fill="currentColor" fill-rule="evenodd" clip-rule="evenodd"/></symbol><symbol viewBox="0 0 15 15" fill="none" id="sun"><path d="M7.5 0a.5.5 0 0 1 .5.5v2a.5.5 0 0 1-1 0v-2a.5.5 0 0 1 .5-.5ZM2.197 2.197a.5.5 0 0 1 .707 0L4.318 3.61a.5.5 0 0 1-.707.707L2.197 2.904a.5.5 0 0 1 0-.707ZM.5 7a.5.5 0 0 0 0 1h2a.5.5 0 0 0 0-1h-2Zm1.697 5.803a.5.5 0 0 1 0-.707l1.414-1.414a.5.5 0 1 1 .707.707l-1.414 1.414a.5.5 0 0 1-.707 0ZM12.5 7a.5.5 0 0 0 0 1h2a.5.5 0 0 0 0-1h-2Zm-1.818-2.682a.5.5 0 0 1 0-.707l1.414-1.414a.5.5 0 1 1 .707.707L11.39 4.318a.5.5 0 0 1-.707 0ZM8 12.5a.5.5 0 0 0-1 0v2a.5.5 0 0 0 1 0v-2Zm2.682-1.818a.5.5 0 0 1 .707 0l1.414 1.414a.5.5 0 1 1-.707.707l-1.414-1.414a.5.5 0 0 1 0-.707ZM5.5 7.5a2 2 0 1 1 4 0 2 2 0 0 1-4 0Zm2-3a3 3 0 1 0 0 6 3 3 0 0 0 0-6Z" fill="currentColor" fill-rule="evenodd" clip-rule="evenodd"/></symbol><symbol id="moon"><path d="M2.9.5a.4.4 0 0 0-.8 0v.6h-.6a.4.4 0 1 0 0 .8h.6v.6a.4.4 0 1 0 .8 0v-.6h.6a.4.4 0 0 0 0-.8h-.6V.5Zm3 3a.4.4 0 1 0-.8 0v.6h-.6a.4.4 0 1 0 0 .8h.6v.6a.4.4 0 1 0 .8 0v-.6h.6a.4.4 0 0 0 0-.8h-.6v-.6Zm-4 3a.4.4 0 1 0-.8 0v.6H.5a.4.4 0 1 0 0 .8h.6v.6a.4.4 0 0 0 .8 0v-.6h.6a.4.4 0 0 0 0-.8h-.6v-.6ZM8.544.982l-.298-.04c-.213-.024-.34.224-.217.4A6.57 6.57 0 0 1 9.203 5.1a6.602 6.602 0 0 1-6.243 6.59c-.214.012-.333.264-.183.417a6.8 6.8 0 0 0 .21.206l.072.066.26.226.188.148.121.09.187.131.176.115c.12.076.244.149.37.217l.264.135.26.12.303.122.244.086a6.568 6.568 0 0 0 1.103.26l.317.04.267.02a6.6 6.6 0 0 0 6.943-7.328l-.037-.277a6.557 6.557 0 0 0-.384-1.415l-.113-.268-.077-.166-.074-.148a6.602 6.602 0 0 0-.546-.883l-.153-.2-.199-.24-.163-.18-.12-.124-.16-.158-.223-.2-.32-.26-.245-.177-.292-.19-.321-.186-.328-.165-.113-.052-.24-.101-.276-.104-.252-.082-.325-.09-.265-.06-.292-.053Zm1.86 4.318a7.578 7.578 0 0 0-.572-2.894 5.601 5.601 0 1 1-4.748 10.146 7.61 7.61 0 0 0 3.66-2.51.749.749 0 0 0 1.355-.442.75.75 0 0 0-.584-.732c.062-.116.122-.235.178-.355A1.25 1.25 0 1 0 10.35 6.2c.034-.295.052-.595.052-.9Z" fill="currentColor" fill-rule="evenodd" clip-rule="evenodd"/></symbol><symbol id="hamburger-menu"><path d="M1.5 3a.5.5 0 0 0 0 1h12a.5.5 0 0 0 0-1h-12ZM1 7.5a.5.5 0 0 1 .5-.5h12a.5.5 0 0 1 0 1h-12a.5.5 0 0 1-.5-.5Zm0 4a.5.5 0 0 1 .5-.5h12a.5.5 0 0 1 0 1h-12a.5.5 0 0 1-.5-.5Z" fill="currentColor" fill-rule="evenodd" clip-rule="evenodd"/></symbol><symbol id="cross"><path d="M12.854 2.854a.5.5 0 0 0-.708-.708L7.5 6.793 2.854 2.146a.5.5 0 1 0-.708.708L6.793 7.5l-4.647 4.646a.5.5 0 0 0 .708.708L7.5 8.207l4.646 4.647a.5.5 0 0 0 .708-.708L8.207 7.5l4.647-4.646Z" fill="currentColor" fill-rule="evenodd" clip-rule="evenodd"/></symbol><symbol id="envelope-closed"><path d="M1 2a1 1 0 0 0-1 1v9a1 1 0 0 0 1 1h13a1 1 0 0 0 1-1V3a1 1 0 0 0-1-1H1Zm0 1h13v.925a.448.448 0 0 0-.241.07L7.5 7.967 1.241 3.995A.448.448 0 0 0 1 3.925V3Zm0 1.908V12h13V4.908L7.741 8.88a.45.45 0 0 1-.482 0L1 4.908Z" fill="currentColor" fill-rule="evenodd" clip-rule="evenodd"/></symbol><symbol id="discord"><path fill-rule="evenodd" clip-rule="evenodd" d="M5.075 1.826a.48.48 0 0 0-.127-.003c-.841.091-2.121.545-2.877.955a.48.48 0 0 0-.132.106c-.314.359-.599.944-.822 1.498C.887 4.95.697 5.55.59 5.984.236 7.394.043 9.087.017 10.693a.48.48 0 0 0 .056.23c.3.573.947 1.104 1.595 1.492.655.393 1.42.703 2.036.763a.48.48 0 0 0 .399-.153c.154-.167.416-.557.614-.86.09-.138.175-.27.241-.375.662.12 1.492.19 2.542.19 1.048 0 1.878-.07 2.54-.19.066.106.15.237.24.374.198.304.46.694.615.861a.48.48 0 0 0 .399.153c.616-.06 1.38-.37 2.035-.763.648-.388 1.295-.919 1.596-1.492a.48.48 0 0 0 .055-.23c-.025-1.606-.219-3.3-.571-4.71a12.98 12.98 0 0 0-.529-1.601c-.223-.554-.508-1.14-.821-1.498a.48.48 0 0 0-.133-.106c-.755-.41-2.035-.864-2.877-.955a.48.48 0 0 0-.126.003 1.18 1.18 0 0 0-.515.238 2.905 2.905 0 0 0-.794.999A14.046 14.046 0 0 0 7.5 3.02c-.402 0-.774.015-1.117.042a2.905 2.905 0 0 0-.794-.998 1.18 1.18 0 0 0-.514-.238Zm5.943 9.712a23.136 23.136 0 0 0 .433.643c.396-.09.901-.3 1.385-.59.543-.325.974-.7 1.182-1.017-.033-1.506-.219-3.07-.54-4.358a12.046 12.046 0 0 0-.488-1.475c-.2-.498-.415-.92-.602-1.162-.65-.337-1.675-.693-2.343-.79a.603.603 0 0 0-.058.04 1.5 1.5 0 0 0-.226.22 2.52 2.52 0 0 0-.113.145c.305.056.577.123.818.197.684.21 1.177.5 1.418.821a.48.48 0 1 1-.768.576c-.059-.078-.316-.29-.932-.48-.595-.182-1.47-.328-2.684-.328-1.214 0-2.09.146-2.684.329-.616.19-.873.4-.932.479a.48.48 0 1 1-.768-.576c.241-.322.734-.61 1.418-.82.24-.075.512-.141.816-.197a2.213 2.213 0 0 0-.114-.146 1.5 1.5 0 0 0-.225-.22.604.604 0 0 0-.059-.04c-.667.097-1.692.453-2.342.79-.188.243-.402.664-.603 1.162-.213.53-.39 1.087-.487 1.475-.322 1.288-.508 2.852-.54 4.358.208.318.638.692 1.181 1.018.485.29.989.5 1.386.589a16.32 16.32 0 0 0 .433-.643c-.785-.279-1.206-.662-1.48-1.072a.48.48 0 0 1 .8-.532c.26.392.944 1.086 4.2 1.086 3.257 0 3.94-.694 4.2-1.086a.48.48 0 0 1 .8.532c-.274.41-.696.794-1.482 1.072ZM4.08 7.012c.244-.262.575-.41.92-.412.345.002.676.15.92.412.243.263.38.618.38.988s-.137.725-.38.988c-.244.262-.575.41-.92.412a1.263 1.263 0 0 1-.92-.412A1.453 1.453 0 0 1 3.7 8c0-.37.137-.725.38-.988ZM10 6.6c-.345.002-.676.15-.92.412-.243.263-.38.618-.38.988s.137.725.38.988c.244.262.575.41.92.412.345-.002.676-.15.92-.412.243-.263.38-.618.38-.988s-.137-.725-.38-.988A1.263 1.263 0 0 0 10 6.6Z" fill="currentColor"/></symbol><symbol id="twitter"><path d="M7.233 4.696c0-1.727 1.4-3.127 3.127-3.127 1.014 0 1.823.479 2.365 1.175a5.246 5.246 0 0 0 1.626-.629 2.634 2.634 0 0 1-1.148 1.45l.002.003a5.26 5.26 0 0 0 1.5-.413l-.001.002c-.337.505-.76.95-1.248 1.313.026.177.04.354.04.53 0 3.687-2.809 7.975-7.975 7.975a7.93 7.93 0 0 1-4.296-1.26.5.5 0 0 1-.108-.748.45.45 0 0 1 .438-.215c.916.108 1.83-.004 2.637-.356a3.086 3.086 0 0 1-1.69-1.876.45.45 0 0 1 .103-.448 3.07 3.07 0 0 1-1.045-2.31v-.034a.45.45 0 0 1 .365-.442 3.068 3.068 0 0 1-.344-1.416c0-.468.003-1.058.332-1.59a.45.45 0 0 1 .323-.208.5.5 0 0 1 .538.161 6.964 6.964 0 0 0 4.46 2.507v-.044Zm-1.712 7.279a6.936 6.936 0 0 1-2.249-.373 5.318 5.318 0 0 0 2.39-1.042.45.45 0 0 0-.27-.804 2.174 2.174 0 0 1-1.714-.888c.19-.015.376-.048.556-.096a.45.45 0 0 0-.028-.876 2.18 2.18 0 0 1-1.644-1.474c.2.048.409.077.623.084a.45.45 0 0 0 .265-.824 2.177 2.177 0 0 1-.97-1.812c0-.168.003-.317.013-.453a7.95 7.95 0 0 0 5.282 2.376.5.5 0 0 0 .513-.61 2.127 2.127 0 0 1 2.071-2.614c1.234 0 2.136 1.143 2.136 2.432 0 3.256-2.476 6.974-6.975 6.974Z" fill="currentColor" fill-rule="evenodd" clip-rule="evenodd"/></symbol><symbol id="arrow-top-right"><path d="M3.646 11.354a.5.5 0 0 1 0-.707L10.293 4H6a.5.5 0 0 1 0-1h5.5a.5.5 0 0 1 .5.5V9a.5.5 0 0 1-1 0V4.707l-6.646 6.647a.5.5 0 0 1-.708 0Z" fill="currentColor" fill-rule="evenodd" clip-rule="evenodd"/></symbol><symbol id="external-link"><path d="M3 2a1 1 0 0 0-1 1v9a1 1 0 0 0 1 1h9a1 1 0 0 0 1-1V8.5a.5.5 0 0 0-1 0V12H3V3h3.5a.5.5 0 0 0 0-1H3Zm9.854.146a.5.5 0 0 1 .146.351V5.5a.5.5 0 0 1-1 0V3.707L6.854 8.854a.5.5 0 1 1-.708-.708L11.293 3H9.5a.5.5 0 0 1 0-1h3a.499.499 0 0 1 .354.146Z" fill="currentColor" fill-rule="evenodd" clip-rule="evenodd"/></symbol></defs></svg>